# xmcd CD database generated by RipIT
#
# Track frame offsets:
# 150
# 17185
# 37770
# 56913
# 77410
# 94716
# 114728
# 133599
# 151685
# 167434
# 184718
#
# Disc length: 2702 seconds
#
# Revision: 0
# Processed by: cddbd v1.5.2PL0 Copyright (c) Steve Scherf et al.
# Submitted via: RipIT 3.9.0 www.suwald.com/ripit/ripit.html on 2017-03-27 at 13:00
#
DISCID=7b0a8c0b
DTITLE=Muddy Magnolias - Broken People
DYEAR=2016
DGENRE=0
TTITLE0=Broken people
TTITLE1=Brother, what happened?
TTITLE2=Got it goin' on
TTITLE3=Why don't you stay?
TTITLE4=Take me home
TTITLE5=Shine on!
TTITLE6=It ain't easy
TTITLE7=I need a man
TTITLE8=Devil's teeth
TTITLE9=Train
TTITLE10=Leave it to the sky - feat. John Legend
EXTD=
EXTT0=
EXTT1=
EXTT2=
EXTT3=
EXTT4=
EXTT5=
EXTT6=
EXTT7=
EXTT8=
EXTT9=
EXTT10=
PLAYORDER=
